<?xml version="1.0" encoding="UTF-8"?>
<!DOCTYPE svg PUBLIC "-//W3C//DTD SVG 1.1//EN" "http://www.w3.org/Graphics/SVG/1.1/DTD/svg11.dtd">
<svg xmlns="http://www.w3.org/2000/svg" xmlns:xlink="http://www.w3.org/1999/xlink" version="1.1" width="721px" height="181px" viewBox="-0.5 -0.5 721 181"><defs/><g><rect x="0" y="0" width="720" height="180" fill="none" stroke="none" pointer-events="all"/><ellipse cx="100" cy="41" rx="20" ry="20" fill="rgb(255, 255, 255)" stroke="rgb(0, 0, 0)" stroke-width="2" pointer-events="all"/><g fill="rgb(0, 0, 0)" font-family="Helvetica" text-anchor="middle" font-size="14px"><text x="99.5" y="46.5">30</text></g><ellipse cx="40" cy="100" rx="20" ry="20" fill="rgb(255, 255, 255)" stroke="rgb(0, 0, 0)" stroke-width="2" pointer-events="all"/><g fill="rgb(0, 0, 0)" font-family="Helvetica" text-anchor="middle" font-size="14px"><text x="39.5" y="105.5">10</text></g><path d="M 54.14 85.86 L 85.71 54.99" fill="none" stroke="rgb(0, 0, 0)" stroke-width="2" stroke-miterlimit="10" pointer-events="stroke"/><ellipse cx="100" cy="159" rx="20" ry="20" fill="#d5e8d4" stroke="#82b366" stroke-width="2" pointer-events="all"/><g fill="rgb(0, 0, 0)" font-family="Helvetica" text-anchor="middle" font-size="14px"><text x="99.5" y="164.5">20</text></g><path d="M 54.14 114.14 L 85.71 145.01" fill="none" stroke="rgb(0, 0, 0)" stroke-width="2" stroke-miterlimit="10" pointer-events="stroke"/><path d="M 40 70 Q 10 70 10 91.76" fill="none" stroke="#6c8ebf" stroke-width="2" stroke-miterlimit="10" pointer-events="stroke"/><path d="M 10 97.76 L 6 89.76 L 10 91.76 L 14 89.76 Z" fill="#6c8ebf" stroke="#6c8ebf" stroke-width="2" stroke-miterlimit="10" pointer-events="all"/><path d="M 95.7 136.02 L 70.13 110.8" fill="none" stroke="#6c8ebf" stroke-width="2" stroke-miterlimit="10" pointer-events="stroke"/><path d="M 65.85 106.59 L 74.36 109.36 L 70.13 110.8 L 68.74 115.06 Z" fill="#6c8ebf" stroke="#6c8ebf" stroke-width="2" stroke-miterlimit="10" pointer-events="all"/><ellipse cx="420" cy="41" rx="20" ry="20" fill="rgb(255, 255, 255)" stroke="rgb(0, 0, 0)" stroke-width="2" pointer-events="all"/><g fill="rgb(0, 0, 0)" font-family="Helvetica" text-anchor="middle" font-size="14px"><text x="419.5" y="46.5">30</text></g><ellipse cx="300" cy="159" rx="20" ry="20" fill="rgb(255, 255, 255)" stroke="rgb(0, 0, 0)" stroke-width="2" pointer-events="all"/><g fill="rgb(0, 0, 0)" font-family="Helvetica" text-anchor="middle" font-size="14px"><text x="299.5" y="164.5">10</text></g><path d="M 314.14 144.86 L 345.71 113.99" fill="none" stroke="rgb(0, 0, 0)" stroke-width="2" stroke-miterlimit="10" pointer-events="stroke"/><ellipse cx="360" cy="100" rx="20" ry="20" fill="#d5e8d4" stroke="#82b366" stroke-width="2" pointer-events="all"/><g fill="rgb(0, 0, 0)" font-family="Helvetica" text-anchor="middle" font-size="14px"><text x="359.5" y="105.5">20</text></g><path d="M 405.86 55.14 L 374.29 86.01" fill="none" stroke="rgb(0, 0, 0)" stroke-width="2" stroke-miterlimit="10" pointer-events="stroke"/><path d="M 420 10 Q 450 10 450 31.76" fill="none" stroke="#6c8ebf" stroke-width="2" stroke-miterlimit="10" pointer-events="stroke"/><path d="M 450 37.76 L 446 29.76 L 450 31.76 L 454 29.76 Z" fill="#6c8ebf" stroke="#6c8ebf" stroke-width="2" stroke-miterlimit="10" pointer-events="all"/><path d="M 364.3 76.02 L 389.87 50.8" fill="none" stroke="#6c8ebf" stroke-width="2" stroke-miterlimit="10" pointer-events="stroke"/><path d="M 394.15 46.59 L 391.26 55.06 L 389.87 50.8 L 385.64 49.36 Z" fill="#6c8ebf" stroke="#6c8ebf" stroke-width="2" stroke-miterlimit="10" pointer-events="all"/><ellipse cx="699" cy="159" rx="20" ry="20" fill="rgb(255, 255, 255)" stroke="rgb(0, 0, 0)" stroke-width="2" pointer-events="all"/><g fill="rgb(0, 0, 0)" font-family="Helvetica" text-anchor="middle" font-size="14px"><text x="698.5" y="164.5">30</text></g><ellipse cx="580" cy="159" rx="20" ry="20" fill="rgb(255, 255, 255)" stroke="rgb(0, 0, 0)" stroke-width="2" pointer-events="all"/><g fill="rgb(0, 0, 0)" font-family="Helvetica" text-anchor="middle" font-size="14px"><text x="579.5" y="164.5">10</text></g><path d="M 594.14 144.86 L 625.71 113.99" fill="none" stroke="rgb(0, 0, 0)" stroke-width="2" stroke-miterlimit="10" pointer-events="stroke"/><ellipse cx="640" cy="100" rx="20" ry="20" fill="#d5e8d4" stroke="#82b366" stroke-width="2" pointer-events="all"/><g fill="rgb(0, 0, 0)" font-family="Helvetica" text-anchor="middle" font-size="14px"><text x="639.5" y="105.5">20</text></g><path d="M 684.86 144.86 L 654.14 114.14" fill="none" stroke="rgb(0, 0, 0)" stroke-width="2" stroke-miterlimit="10" pointer-events="stroke"/><path d="M 210 85.8 L 227.6 85.8 L 227.6 80 L 240 90 L 227.6 100 L 227.6 94.2 L 210 94.2 L 210 90 Z" fill="#ffcc99" stroke="#36393d" stroke-miterlimit="10" pointer-events="all"/><path d="M 480 85.8 L 497.6 85.8 L 497.6 80 L 510 90 L 497.6 100 L 497.6 94.2 L 480 94.2 L 480 90 Z" fill="#ffcc99" stroke="#36393d" stroke-miterlimit="10" pointer-events="all"/></g></svg>